{"title":"Crazy.Stupid.Love.2011.720p.BRRip.x264.aac.mp4-anoXmous","uid":6820368,"size":734374187,"categoryP":"video","categoryS":"hd___movies","magnet":"?xt=urn:btih:5c153c2cc0bdbdf49271280b1a26bf09bff8f6d2&amp;dn=Crazy.Stupid.Love.2011.720p.BRRip.x264.aac.mp4-anoXmous&amp;tr=udp%3A%2F%2Ftracker.openbittorrent.com%3A80&amp;tr=udp%3A%2F%2Fopen.demonii.com%3A1337&amp;tr=udp%3A%2F%2Ftracker.coppersurfer.tk%3A6969&amp;tr=udp%3A%2F%2Fexodus.desync.com%3A6969","seeders":1,"leechers":0,"uploader":"anoXmous","files":-1,"time":1321369382,"description":"Crazy.Stupid.Love.2011.720p.BRRip.x264.aac.mp4-anoXmous\n\nFormat                           : MPEG-4\nFormat profile                   : Base Media\nCodec ID                         : isom\nFile size                        : 700 MiB\nDuration                         : 1h 58mn\nOverall bit rate mode            : Variable\nOverall bit rate                 : 829 Kbps\n\n\nVideo\nID                               : 1\nFormat                           : AVC\nFormat/Info                      : Advanced Video Codec\nFormat profile                   : &lt;a class=&quot;__cf_email__&quot; href=&quot;/cdn-cgi/l/email-protection&quot; data-cfemail=&quot;a7efcec0cfe7eb938996&quot;&gt;[email&amp;#160;protected]&lt;/a&gt;&lt;script cf-hash='f9e31' type=&quot;text/javascript&quot;&gt;\n/* &lt;![CDATA[ */!function(){try{var t=&quot;currentScript&quot;in document?document.currentScript:function(){for(var t=document.getElementsByTagName(&quot;script&quot;),e=t.length;e--;)if(t[e].getAttribute(&quot;cf-hash&quot;))return t[e]}();if(t&amp;&amp;t.previousSibling){var e,r,n,i,c=t.previousSibling,a=c.getAttribute(&quot;data-cfemail&quot;);if(a){for(e=&quot;&quot;,r=parseInt(a.substr(0,2),16),n=2;a.length-n;n+=2)i=parseInt(a.substr(n,2),16)^r,e+=String.fromCharCode(i);e=document.createTextNode(e),c.parentNode.replaceChild(e,c)}}}catch(u){}}();/* ]]&gt; */&lt;/script&gt;\nFormat settings, CABAC           : Yes\nFormat settings, ReFrames        : 4 frames\nCodec ID                         : avc1\nCodec ID/Info                    : Advanced Video Coding\nDuration                         : 1h 58mn\nBit rate                         : 761 Kbps\nMaximum bit rate                 : 5 145 Kbps\nWidth                            : 1 280 pixels\nHeight                           : 720 pixels\nDisplay aspect ratio             : 2.40:1\nFrame rate mode                  : Constant\nFrame rate                       : 23.976 fps\nColor space                      : YUV\nChroma subsampling               : 4:2:0\nBit depth                        : 8 bits\nScan type                        : Progressive\nBits/(Pixel*Frame)               : 0.034\nStream size                      : 643 MiB (92%)\nWriting library                  : x264 core 119 r2106 07efeb4\n\n\nAudio\nID                               : 2\nFormat                           : AAC\nFormat/Info                      : Advanced Audio Codec\nFormat profile                   : LC\nCodec ID                         : 40\nDuration                         : 1h 58mn\nBit rate mode                    : Variable\nBit rate                         : 63.9 Kbps\nMaximum bit rate                 : 100 Kbps\nChannel(s)                       : 2 channels\nChannel positions                : Front: L R\nSampling rate                    : 48.0 KHz\nCompression mode                 : Lossy\nStream size                      : 54.0 MiB (8%)\n\n                               SUB:\n\nCrazy.Stupid.Love.2011.720p.BRRip.x264.aac.mp4-anoXmous_eng.srt\nCrazy.Stupid.Love.2011.720p.BRRip.x264.aac.mp4-anoXmous_swe.srt\n &lt;a href=&quot;\nhttp://www.imdb.com/title/tt1570728/&quot; rel=&quot;nofollow&quot; target=&quot;_NEW&quot;&gt;\nhttp://www.imdb.com/title/tt1570728/&lt;/a&gt;","torrent":{"xt":"urn:btih:5c153c2cc0bdbdf49271280b1a26bf09bff8f6d2","amp;dn":"Crazy.Stupid.Love.2011.720p.BRRip.x264.aac.mp4-anoXmous","amp;tr":["udp%3A%2F%2Ftracker.openbittorrent.com%3A80","udp%3A%2F%2Fopen.demonii.com%3A1337","udp%3A%2F%2Ftracker.coppersurfer.tk%3A6969","udp%3A%2F%2Fexodus.desync.com%3A6969"],"infoHash":"5c153c2cc0bdbdf49271280b1a26bf09bff8f6d2","infoHashBuffer":{"type":"Buffer","data":[92,21,60,44,192,189,189,244,146,113,40,11,26,38,191,9,191,248,246,210]},"announce":[],"urlList":[]}}